<?xml version="1.0" standalone="no"?><!DOCTYPE svg PUBLIC "-//W3C//DTD SVG 1.1//EN" "http://www.w3.org/Graphics/SVG/1.1/DTD/svg11.dtd"><svg t="1663140927036" class="icon" viewBox="0 0 1024 1024" version="1.1" xmlns="http://www.w3.org/2000/svg" p-id="2180" xmlns:xlink="http://www.w3.org/1999/xlink" width="32" height="32"><path d="M512 981.333333C253.866667 981.333333 42.666667 770.133333 42.666667 512S253.866667 42.666667 512 42.666667s469.333333 211.2 469.333333 469.333333-211.2 469.333333-469.333333 469.333333z m0-853.333333C300.8 128 128 300.8 128 512s172.8 384 384 384 384-172.8 384-384S723.2 128 512 128z" p-id="2181"></path><path d="M512 533.333333c-83.2 0-149.333333-66.133333-149.333333-149.333333s66.133333-149.333333 149.333333-149.333333 149.333333 66.133333 149.333333 149.333333-66.133333 149.333333-149.333333 149.333333z m0-213.333333c-36.266667 0-64 27.733333-64 64s27.733333 64 64 64 64-27.733333 64-64-27.733333-64-64-64zM213.333333 859.733333h-2.133333c-23.466667-2.133333-40.533333-21.333333-40.533333-44.8 8.533333-134.4 121.6-238.933333 256-238.933333h170.666666c134.4 0 245.333333 104.533333 256 238.933333 2.133333 23.466667-17.066667 44.8-40.533333 44.8-23.466667 2.133333-44.8-17.066667-44.8-40.533333-6.4-89.6-81.066667-157.866667-170.666667-157.866667h-170.666666c-89.6 0-164.266667 70.4-170.666667 160-2.133333 21.333333-19.2 38.4-42.666667 38.4z" p-id="2182"></path></svg>